<?xml version="1.0" encoding="utf-8"?>
<!-- Generator: Adobe Illustrator 27.5.0, SVG Export Plug-In . SVG Version: 6.00 Build 0)  -->
<svg version="1.1" id="Layer_1" xmlns="http://www.w3.org/2000/svg" xmlns:xlink="http://www.w3.org/1999/xlink" x="0px" y="0px"
	 viewBox="0 0 492 492" style="enable-background:new 0 0 492 492;" xml:space="preserve">
<linearGradient id="SVGID_1_" gradientUnits="userSpaceOnUse" x1="246" y1="592" x2="246" y2="1072" gradientTransform="matrix(1 0 0 1 0 -586)">
	<stop  offset="0" style="stop-color:#5D91F9"/>
	<stop  offset="1" style="stop-color:#C823FF"/>
	<stop  offset="1" style="stop-color:#000000"/>
</linearGradient>
<circle style="fill:url(#SVGID_1_);" cx="246" cy="246" r="240"/>
<g>
	<path style="fill:#FFFFFF;" d="M132.8,391.3c0,8.1,6.6,14.7,14.7,14.7h197.1c8.1,0,14.7-6.6,14.7-14.7v-24.7H132.8V391.3z
		 M232.2,381h27.5c2.9,0,5.3,2.4,5.3,5.3c0,2.9-2.4,5.3-5.3,5.3h-27.5c-2.9,0-5.3-2.4-5.3-5.3C226.9,383.3,229.3,381,232.2,381z"/>
	<path style="fill:#FFFFFF;" d="M344.5,86h-197c-8.1,0-14.7,6.6-14.7,14.7v24.7h226.5v-24.7C359.2,92.6,352.6,86,344.5,86z
		 M259.8,111h-27.5c-2.9,0-5.3-2.4-5.3-5.3c0-2.9,2.4-5.3,5.3-5.3h27.5c2.9,0,5.3,2.4,5.3,5.3C265.1,108.7,262.7,111,259.8,111z"/>
	<path style="fill:#FFFFFF;" d="M132.8,355.9h226.5V136.1H132.8V355.9z M150.4,171.7c0.1-1.4,0.8-2.7,1.9-3.6
		c1.1-0.9,2.5-1.4,3.9-1.2c33,3,63.2-6.2,85.2-25.8c1.4-1.2,2.5-2.3,4.6-2.3s3.3,1,4.6,2.3c21.9,19.6,52.2,28.8,85.2,25.8
		c1.4-0.1,2.8,0.3,3.9,1.2c1.1,0.9,1.8,2.2,1.9,3.6c0.1,1.4,2.8,35.4-7.2,74.8c-5.9,23.3-15,43.6-27.1,60.4
		c-15.2,21.1-35.2,36.6-59.3,46c-0.6,0.2-1.3,0.4-1.9,0.4c-0.7,0-1.3-0.1-1.9-0.4c-24.1-9.4-44.1-24.9-59.3-46
		c-12.1-16.8-21.2-37.1-27.1-60.4C147.6,207.1,150.3,173.1,150.4,171.7z"/>
	<path style="fill:#FFFFFF;" d="M246,342.2c39.3-16,65.6-49.1,78-98.3c7.3-28.9,7.5-55.2,7.2-66.1c-32.6,1.7-62.6-7.7-85.2-26.7
		c-20.9,17.6-48,26.9-77.7,26.9c-2.5,0-5-0.1-7.5-0.2c-0.3,10.9-0.1,37.4,7.2,66.4C180.5,293.2,206.7,326.2,246,342.2z M197.8,239.4
		c0-6.9,5.6-12.5,12.5-12.5h4.2v-16.5c0-15,12.2-27.1,27.1-27.1h8.7c15,0,27.1,12.2,27.1,27.1v16.5h4.2c6.9,0,12.5,5.6,12.5,12.5
		v56.8c0,6.9-5.6,12.5-12.5,12.5h-71.4c-6.9,0-12.5-5.6-12.5-12.5v-56.8H197.8z"/>
	<path style="fill:#FFFFFF;" d="M210.3,298h71.4c1,0,1.8-0.8,1.8-1.8v-56.8c0-1-0.8-1.8-1.8-1.8h-71.4c-1,0-1.8,0.8-1.8,1.8v56.8
		C208.5,297.2,209.3,298,210.3,298z M227.6,259.6c0-10.2,8.3-18.4,18.4-18.4c10.2,0,18.4,8.3,18.4,18.4c0,5.8-2.7,11.1-7,14.5
		l6.5,12.4c0.9,1.7,0.8,3.6-0.2,5.2c-1,1.6-2.7,2.6-4.6,2.6h-26.4c-1.9,0-3.6-1-4.6-2.6c-1-1.6-1-3.6-0.2-5.2l6.5-12.4
		C230.3,270.7,227.6,265.4,227.6,259.6z"/>
	<path style="fill:#FFFFFF;" d="M266.8,210.5c0-9.1-7.4-16.5-16.5-16.5h-8.7c-9.1,0-16.5,7.4-16.5,16.5V227h41.6v-16.5H266.8z"/>
	<polygon style="fill:#FFFFFF;" points="241.6,283.7 250.4,283.7 246,275.4 	"/>
	<path style="fill:#FFFFFF;" d="M243.5,267c1,0.3,1.9,1,2.5,1.8c0.6-0.8,1.5-1.5,2.5-1.8c3.1-1.1,5.2-4,5.2-7.3
		c0-4.3-3.5-7.8-7.8-7.8c-4.3,0-7.8,3.5-7.8,7.8C238.2,263,240.3,265.9,243.5,267z"/>
</g>
</svg>
